 <svg  version="1.0" xmlns="http://www.w3.org/2000/svg"  width="900.000000pt" height="900.000000pt" viewBox="0 0 900.000000 900.000000"  preserveAspectRatio="xMidYMid meet">  <g transform="translate(0.000000,900.000000) scale(0.100000,-0.100000)" fill="#000000" stroke="none"> <path d="M4155 7524 c-157 -10 -469 -80 -615 -138 -169 -68 -237 -99 -405 -190 -24 -13 -163 -105 -185 -123 -8 -6 -51 -39 -95 -74 -182 -140 -416 -408 -548 -625 -57 -95 -140 -256 -162 -314 -96 -259 -120 -342 -161 -560 -27 -138 -27 -612 0 -750 41 -215 95 -405 155 -545 20 -46 118 -245 144 -290 69 -124 202 -305 224 -305 7 0 24 25 39 56 45 94 99 168 201 272 137 139 251 227 443 340 58 35 112 67 120 72 8 6 24 14 35 19 11 5 73 34 137 65 65 31 122 56 128 56 6 0 21 5 33 12 58 32 326 118 477 153 108 25 120 32 191 115 35 41 71 82 79 91 8 8 40 46 70 84 30 37 60 73 65 79 6 6 50 61 99 121 48 61 99 124 113 140 14 17 46 57 72 90 40 52 102 132 147 188 49 61 349 468 440 597 248 352 376 562 429 701 19 54 11 84 -30 99 -38 14 -170 -24 -276 -80 -33 -17 -121 -65 -137 -75 -192 -112 -434 -311 -570 -470 -217 -253 -295 -453 -247 -633 20 -72 60 -144 119 -206 20 -22 36 -46 36 -53 0 -13 -78 -53 -104 -53 -14 0 -105 93 -130 133 -27 44 -56 145 -56 196 0 45 31 184 49 219 5 9 14 28 20 42 5 14 24 48 41 75 16 28 33 57 37 65 3 8 25 40 48 70 23 30 46 63 51 73 23 41 236 257 339 342 100 83 296 225 311 225 3 0 25 13 48 28 69 47 251 130 331 152 52 14 95 32 95 39 0 21 -237 169 -380 238 -75 36 -109 51 -220 95 -113 45 -278 88 -473 123 -86 16 -438 27 -572 19z"/> <path d="M5941 6828 c-40 -82 -100 -189 -117 -209 -8 -8 -14 -18 -14 -21 0 -3 -46 -74 -103 -159 -156 -233 -166 -247 -244 -352 -40 -54 -73 -100 -73 -103 0 -2 -28 -41 -62 -86 -35 -45 -86 -111 -113 -147 -155 -203 -289 -373 -342 -436 -14 -16 -46 -57 -72 -90 -39 -51 -154 -192 -224 -275 -134 -158 -177 -212 -177 -221 0 -12 29 -10 250 18 105 13 208 15 635 10 513 -5 575 -10 575 -42 0 -17 -61 -65 -119 -95 l-43 -23 -337 14 c-380 16 -853 18 -983 5 -104 -11 -78 10 -293 -231 -360 -403 -710 -732 -965 -906 -121 -82 -185 -116 -263 -138 -35 -10 -63 -24 -64 -32 -4 -21 257 -209 397 -286 127 -70 204 -105 365 -166 37 -13 76 -26 205 -63 50 -14 158 -35 301 -58 128 -21 467 -22 604 -1 312 47 551 122 800 250 103 52 99 50 225 132 316 206 577 486 767 821 153 269 239 523 294 862 21 132 24 464 5 603 -26 188 -49 296 -88 412 -5 17 -14 48 -19 70 -6 22 -14 44 -20 50 -5 5 -9 15 -9 23 0 13 -5 27 -45 117 -21 48 -111 227 -131 261 -11 17 -32 53 -48 80 -95 158 -368 474 -408 474 -10 0 -28 -24 -47 -62z"/> <path d="M4070 4565 c-19 -7 -46 -14 -59 -14 -24 -1 -41 -6 -211 -62 -91 -30 -112 -37 -190 -72 -43 -19 -180 -85 -200 -97 -135 -79 -179 -107 -244 -150 -180 -123 -396 -346 -446 -463 -6 -12 -14 -29 -19 -37 -5 -8 -17 -40 -26 -71 -22 -69 -15 -118 25 -162 28 -31 30 -32 112 -32 75 1 88 4 143 34 227 128 568 445 1052 978 91 101 124 143 118 153 -8 12 -11 12 -55 -5z"/> </g> </svg> 